<?xml version="1.0" encoding="UTF-8" standalone="no"?>
<svg xmlns:dc="http://purl.org/dc/elements/1.1/" xmlns:cc="http://creativecommons.org/ns#" xmlns:rdf="http://www.w3.org/1999/02/22-rdf-syntax-ns#" xmlns:svg="http://www.w3.org/2000/svg" xmlns="http://www.w3.org/2000/svg" viewBox="0 0 744.09998 365" height="365" width="744.09998" xml:space="preserve" version="1.1" id="svg2">
  <metadata id="metadata8">
    <rdf:RDF>
      <cc:Work rdf:about="">
        <dc:format>image/svg+xml</dc:format>
        <dc:type rdf:resource="http://purl.org/dc/dcmitype/StillImage" />
      </cc:Work>
    </rdf:RDF>
  </metadata>
  <defs id="defs6">
    <clipPath id="clipPath16" clipPathUnits="userSpaceOnUse">
      <path id="path18" d="m 0,292 595.28,0 0,-292 L 0,0 0,292 Z" />
    </clipPath>
  </defs>
  <g transform="matrix(1.25,0,0,-1.25,0,365)" id="g10">
    <g id="g12">
      <g clip-path="url(#clipPath16)" id="g14">
        <g transform="translate(243.1797,63.3945)" id="g20">
          <path id="path22" style="fill:#0b4269;fill-opacity:1;fill-rule:nonzero;stroke:none" d="m 0,0 c -23.01,-26.958 -57.219,-44.083 -95.358,-44.083 -69.121,0 -125.355,56.234 -125.355,125.355 0,69.122 56.234,125.354 125.355,125.354 39.615,0 74.991,-18.475 97.979,-47.256 2.931,1.631 6.201,2.919 9.711,3.827 -24.752,32.458 -63.813,53.446 -107.69,53.446 -74.644,0 -135.371,-60.727 -135.371,-135.371 0,-74.644 60.727,-135.371 135.371,-135.371 41.477,0 78.65,18.756 103.502,48.225 C 5.076,-4.267 2.324,-2.289 0,0" />
        </g>
        <g transform="translate(285.2246,183.915)" id="g24">
          <path id="path26" style="fill:#0b4269;fill-opacity:1;fill-rule:nonzero;stroke:none" d="m 0,0 c -9.456,2.429 -21.852,2.684 -29.136,-2.428 -8.945,-6.263 -8.18,-20.063 4.089,-23.513 2.299,-0.641 4.857,-0.896 7.541,-0.896 6.644,0 17.506,2.557 17.506,10.735 L 0,0 Z m 0,14.057 c 0,1.917 -0.383,3.706 -1.532,5.24 -2.174,3.067 -6.135,4.983 -10.736,5.878 -3.45,0.638 -6.516,0.512 -10.095,0 -4.6,-0.766 -9.074,-2.684 -11.757,-6.646 l -5.495,3.451 c 7.54,12.141 34.887,12.779 43.321,1.15 2.045,-2.938 2.683,-6.134 2.683,-9.584 l 0,-33.61 c 0,-4.727 3.068,-6.005 6.263,-6.005 l 0,-5.752 c -5.367,-0.384 -9.584,1.151 -11.501,5.112 -5.495,-5.366 -12.396,-6.645 -18.657,-6.645 -3.068,0 -6.262,0.511 -9.33,1.279 -17.379,4.727 -19.424,25.685 -6.39,34.246 7.925,5.37 20.576,6.135 33.226,3.707 l 0,8.179 z" />
        </g>
        <g transform="translate(310.7861,167.8135)" id="g28">
          <path id="path30" style="fill:#0b4269;fill-opacity:1;fill-rule:nonzero;stroke:none" d="m 0,0 c 4.601,-10.991 18.912,-10.991 26.707,-8.818 5.625,1.534 9.97,4.984 9.97,10.096 0.127,8.818 -8.819,9.968 -17.765,11.117 -11.756,1.534 -23.386,2.94 -23.258,17.636 0.128,8.817 6.518,14.312 14.697,16.741 10.094,2.811 26.453,1.661 31.309,-9.201 L 36.548,34.248 C 31.82,42.299 20.063,42.809 12.011,40.511 6.39,38.848 2.044,35.398 2.044,30.031 1.918,21.213 10.861,20.063 19.807,18.912 31.437,17.378 43.193,15.846 43.065,1.278 42.938,-7.413 36.548,-12.779 28.369,-15.079 17.251,-18.275 -1.15,-16.103 -5.497,-3.578 L 0,0 Z" />
        </g>
        <g transform="translate(367.6533,167.8135)" id="g32">
          <path id="path34" style="fill:#0b4269;fill-opacity:1;fill-rule:nonzero;stroke:none" d="m 0,0 c 4.602,-10.991 18.913,-10.991 26.71,-8.818 5.622,1.534 9.967,4.984 9.967,10.096 0.129,8.818 -8.818,9.968 -17.764,11.117 -11.757,1.534 -23.385,2.94 -23.258,17.636 0.128,8.817 6.518,14.312 14.697,16.741 10.096,2.811 26.454,1.661 31.308,-9.201 L 36.55,34.248 C 31.821,42.299 20.064,42.809 12.014,40.511 6.39,38.848 2.046,35.398 2.046,30.031 1.918,21.213 10.863,20.063 19.808,18.912 31.437,17.378 43.194,15.846 43.066,1.278 42.938,-7.413 36.55,-12.779 28.37,-15.079 17.253,-18.275 -1.15,-16.103 -5.494,-3.578 L 0,0 Z" />
        </g>
        <g transform="translate(458.3887,183.915)" id="g36">
          <path id="path38" style="fill:#0b4269;fill-opacity:1;fill-rule:nonzero;stroke:none" d="m 0,0 c -9.457,2.429 -21.854,2.684 -29.138,-2.428 -8.945,-6.263 -8.178,-20.063 4.09,-23.513 2.3,-0.641 4.857,-0.896 7.541,-0.896 6.645,0 17.507,2.557 17.507,10.735 L 0,0 Z m 0,14.057 c 0,1.917 -0.383,3.706 -1.532,5.24 -2.175,3.067 -6.136,4.983 -10.737,5.878 -3.449,0.638 -6.516,0.512 -10.094,0 -4.602,-0.766 -9.074,-2.684 -11.758,-6.646 l -5.495,3.451 c 7.54,12.141 34.887,12.779 43.323,1.15 2.045,-2.938 2.683,-6.134 2.683,-9.584 l 0,-33.61 c 0,-4.727 3.066,-6.005 6.261,-6.005 l 0,-5.752 c -5.367,-0.384 -9.584,1.151 -11.501,5.112 -5.495,-5.366 -12.396,-6.645 -18.657,-6.645 -3.067,0 -6.263,0.511 -9.33,1.279 -17.38,4.727 -19.424,25.685 -6.39,34.246 7.924,5.37 20.576,6.135 33.227,3.707 l 0,8.179 z" />
        </g>
        <g transform="translate(521.6484,180.3359)" id="g40">
          <path id="path42" style="fill:#0b4269;fill-opacity:1;fill-rule:nonzero;stroke:none" d="m 0,0 0,18.275 c 0,4.984 -4.347,8.307 -9.841,9.839 -2.428,0.64 -4.985,0.895 -7.668,0.895 -2.683,0 -5.239,-0.255 -7.539,-0.895 -5.624,-1.532 -9.841,-4.855 -9.841,-9.839 l 0,-18.275 c 0,-6.006 6.007,-9.456 13.035,-10.479 2.173,-0.383 4.474,-0.383 6.774,-0.254 2.3,0.254 4.472,0.638 6.517,1.277 C -3.707,-7.795 0,-4.6 0,0 M 3.194,36.038 8.049,31.821 3.577,27.092 C 5.366,24.665 6.39,21.726 6.39,18.275 L 6.39,0 c 0,-7.921 -5.496,-13.034 -12.909,-15.59 -2.555,-0.766 -5.239,-1.405 -8.05,-1.533 -2.684,-0.256 -5.496,-0.128 -8.179,0.255 l -0.127,0 c -1.15,0.128 -2.301,0.383 -3.324,0.639 -5.367,0 -6.901,-5.877 -1.021,-6.901 12.267,-2.044 33.098,3.962 33.098,-15.334 l 0,-2.301 c 0,-7.923 -4.728,-12.14 -12.013,-14.185 -3.195,-1.022 -6.9,-1.277 -10.35,-1.277 -3.58,0 -7.158,0.255 -10.608,1.149 -7.54,1.661 -13.163,5.752 -13.673,13.802 -0.13,2.044 -0.13,4.217 0.51,6.133 l 6.39,0 c -0.511,-1.788 -0.639,-3.961 -0.384,-5.75 0.384,-4.472 3.962,-6.645 8.435,-8.051 5.879,-1.789 13.419,-1.406 17.89,0.129 4.857,1.66 7.284,3.45 7.284,8.05 l 0,2.301 c 0,12.651 -18.145,7.666 -28.241,9.328 -9.457,1.534 -11.629,10.351 -6.134,14.951 0.383,0.384 0.895,0.768 1.406,1.023 -4.729,2.812 -7.795,7.285 -7.795,13.162 l 0,18.275 c 0,8.434 6.389,13.802 14.568,15.975 3.067,0.894 6.262,1.277 9.328,1.277 3.196,0 6.39,-0.383 9.329,-1.277 2.556,-0.641 4.856,-1.662 6.902,-2.94 l 4.472,4.728 z" />
        </g>
        <g transform="translate(548.1025,181.7427)" id="g44">
          <path id="path46" style="fill:#0b4269;fill-opacity:1;fill-rule:nonzero;stroke:none" d="m 0,0 c 5.494,0.255 19.041,-1.15 27.604,2.939 10.861,5.111 8.817,20.447 -2.557,23.643 -4.857,1.277 -10.352,1.277 -15.208,0 C 4.345,25.047 0,21.724 0,16.74 L 0,0 Z m 0,-12.14 c 0,-2.045 0.384,-3.706 1.532,-5.367 2.174,-2.94 6.136,-4.984 10.61,-5.752 3.449,-0.638 6.643,-0.638 10.093,0 4.729,0.64 9.074,2.556 11.886,6.518 l 5.494,-3.323 c -3.706,-6.006 -9.968,-8.561 -16.484,-9.584 -3.835,-0.639 -7.284,-0.767 -11.119,-0.128 -6.518,1.022 -12.396,3.962 -15.719,8.434 -2.045,2.941 -2.81,6.134 -2.81,9.713 l 0,28.369 c 0,8.435 6.39,13.674 14.697,15.975 6.005,1.66 12.523,1.66 18.528,0 C 43.321,27.731 46.133,5.623 30.67,-2.556 21.725,-7.413 8.563,-5.624 0,-5.624 l 0,-6.516 z" />
        </g>
        <g transform="translate(254.1719,95.7012)" id="g48">
          <path id="path50" style="fill:#0b4269;fill-opacity:1;fill-rule:nonzero;stroke:none" d="M 0,0 C 5.494,0.256 19.041,-1.149 27.604,2.939 38.466,8.051 36.42,23.386 25.047,26.582 20.19,27.859 14.695,27.859 9.84,26.582 4.344,25.048 0,21.725 0,16.742 L 0,0 Z m 0,-12.14 c 0,-2.045 0.384,-3.707 1.533,-5.367 2.173,-2.939 6.134,-4.984 10.607,-5.751 3.45,-0.638 6.645,-0.638 10.096,0 4.728,0.64 9.073,2.556 11.885,6.517 l 5.494,-3.322 c -3.705,-6.007 -9.968,-8.562 -16.485,-9.585 -3.834,-0.639 -7.284,-0.767 -11.119,-0.127 -6.517,1.022 -12.395,3.962 -15.717,8.434 -2.045,2.94 -2.812,6.133 -2.812,9.712 l 0,28.371 c 0,8.433 6.391,13.673 14.697,15.974 6.006,1.66 12.523,1.66 18.529,0 C 43.321,27.731 46.134,5.623 30.67,-2.556 21.725,-7.413 8.562,-5.623 0,-5.623 l 0,-6.517 z" />
        </g>
        <g transform="translate(217.4136,169.6353)" id="g52">
          <path id="path54" style="fill:#0b4269;fill-opacity:1;fill-rule:nonzero;stroke:none" d="m 0,0 0,-68.466 0,-1.97 c 0,-15.805 -16.317,-25.747 -32.632,-26.256 -14.785,-0.255 -29.569,7.138 -30.587,22.942 l 0,5.284 0,31.658 -12.748,-7.421 0,-24.237 0,-5.284 c -1.019,-15.297 -16.313,-22.177 -31.609,-22.177 -13.028,0 -26.048,4.855 -30.223,15.699 l -11.141,-6.486 c 6.94,-14.031 24.019,-20.744 41.108,-20.941 14.533,0 30.59,5.61 37.476,17.588 5.353,-11.978 20.138,-18.096 35.688,-18.096 11.983,0 25.236,3.058 34.668,13.51 l 0,-11.982 13.001,0 0,38.169 0,76.035 L 0,0 Z" />
        </g>
        <g transform="translate(78.2305,113.8657)" id="g56">
          <path id="path58" style="fill:#0b4269;fill-opacity:1;fill-rule:nonzero;stroke:none" d="m 0,0 0,76.267 c 0,15.805 16.313,25.75 32.63,26.257 14.782,0.256 29.567,-7.136 30.586,-22.942 l 0,-5.284 0,-37.494 12.748,7.421 0,30.073 0,5.284 c 1.018,15.296 16.316,22.178 31.61,22.178 14.924,0 29.842,-6.368 31.457,-20.817 l 11.774,6.855 c -5.156,17.272 -24.06,25.47 -42.976,25.689 -14.53,0 -30.592,-5.609 -37.471,-17.589 -5.357,11.98 -20.14,18.097 -35.69,18.097 -11.981,0 -25.235,-3.059 -34.668,-13.51 l 0,11.982 -13.001,0 0,-38.169 0,-81.867 L 0,0 Z" />
        </g>
      </g>
    </g>
  </g>
</svg>
