<?xml version="1.0" standalone="no"?>
<!DOCTYPE svg PUBLIC "-//W3C//DTD SVG 20010904//EN"
 "http://www.w3.org/TR/2001/REC-SVG-20010904/DTD/svg10.dtd">
<svg version="1.0" xmlns="http://www.w3.org/2000/svg"
 width="700.000000pt" height="700.000000pt" viewBox="0 0 700.000000 700.000000"
 preserveAspectRatio="xMidYMid meet">
<metadata>
Created by potrace 1.11, written by Peter Selinger 2001-2013
</metadata>
<g transform="translate(0.000000,700.000000) scale(0.100000,-0.100000)"
fill="#000000" stroke="none">
<path d="M3298 6844 c-2 -1 -37 -5 -78 -8 -42 -4 -84 -8 -95 -10 -11 -2 -49
-7 -85 -11 -53 -6 -309 -56 -360 -70 -8 -3 -46 -13 -85 -24 -194 -55 -462
-164 -649 -264 -802 -431 -1397 -1171 -1639 -2042 -39 -139 -81 -343 -93 -450
-4 -33 -8 -69 -10 -80 -6 -31 -18 -291 -18 -380 0 -89 12 -306 19 -345 2 -14
9 -61 15 -105 6 -44 13 -89 14 -100 36 -246 152 -604 286 -880 216 -446 526
-830 935 -1160 351 -283 820 -511 1275 -619 104 -25 204 -46 244 -51 12 -1 41
-6 66 -9 158 -23 273 -30 465 -30 155 0 371 11 384 18 3 2 35 7 70 10 150 16
425 80 611 143 178 60 458 187 580 261 19 12 42 25 50 29 30 13 227 147 315
213 187 141 356 303 540 515 14 17 45 55 68 85 23 30 44 57 48 60 3 3 35 48
71 100 182 266 319 540 418 840 48 146 103 358 114 438 3 24 8 47 10 51 3 4 8
39 11 77 4 38 9 72 11 76 25 40 24 684 -1 816 -1 9 -6 37 -9 62 -135 997 -773
1925 -1666 2424 -381 213 -853 366 -1240 401 -36 3 -81 9 -100 12 -35 6 -487
12 -492 7z m352 -248 c123 -4 307 -23 386 -40 12 -2 37 -7 55 -10 19 -3 73
-14 121 -26 719 -171 1360 -600 1793 -1200 190 -261 359 -607 451 -918 40
-135 79 -303 89 -382 1 -14 8 -61 14 -105 16 -117 24 -244 24 -380 0 -113 -9
-310 -17 -351 -2 -11 -7 -46 -11 -79 -7 -66 -40 -238 -56 -300 -6 -22 -13 -50
-15 -62 -2 -12 -23 -79 -46 -150 -23 -70 -42 -130 -43 -133 -1 -3 -8 -21 -17
-41 -9 -20 -19 -47 -23 -60 -35 -109 -212 -433 -330 -601 -288 -413 -723 -783
-1175 -1000 -140 -67 -164 -78 -174 -78 -6 0 -22 -6 -36 -13 -57 -30 -332
-117 -419 -134 -14 -2 -28 -6 -31 -8 -4 -2 -22 -7 -41 -10 -19 -3 -56 -10 -84
-15 -172 -34 -317 -45 -570 -45 -229 0 -376 11 -515 40 -14 3 -41 8 -60 11
-151 27 -436 110 -545 159 -16 7 -59 25 -95 40 -331 138 -700 394 -975 677
-268 275 -456 557 -628 938 -68 152 -166 469 -191 620 -42 251 -50 345 -51
580 0 323 24 513 106 820 80 298 248 664 417 905 20 28 45 63 56 80 70 100
198 248 321 370 162 161 181 179 313 279 337 256 732 444 1139 542 114 28 115
28 183 39 25 4 54 9 65 11 11 2 44 6 73 10 29 3 62 7 74 9 11 2 79 7 152 11
72 3 132 8 134 9 2 2 11 1 20 -1 9 -2 82 -5 162 -8z"/>
<path d="M2538 5565 c-2 -2 -32 -5 -68 -9 -109 -10 -269 -54 -368 -101 -107
-51 -174 -96 -249 -169 l-53 -50 0 147 0 147 -160 0 -160 0 0 -1470 c0 -808 2
-1470 5 -1470 4 0 111 59 145 80 8 5 50 30 92 55 l77 46 3 992 3 992 27 68
c51 128 129 220 253 303 160 107 344 160 547 157 339 -5 595 -157 690 -408 22
-59 23 -67 26 -627 1 -313 6 -568 10 -568 4 0 74 40 157 88 l149 87 2 465 c1
459 1 466 24 530 57 161 168 270 346 341 299 120 716 89 946 -69 120 -83 202
-201 223 -324 4 -18 8 -34 10 -36 2 -2 67 34 144 80 158 93 150 77 100 188
-92 200 -290 361 -557 451 -76 26 -173 47 -297 64 -48 7 -301 8 -312 2 -5 -3
-35 -8 -68 -12 -264 -29 -560 -194 -678 -378 l-18 -28 -39 60 c-58 90 -114
146 -204 205 -173 113 -369 166 -623 171 -68 1 -124 1 -125 0z"/>
<path d="M5400 4244 c-69 -41 -137 -79 -152 -85 -16 -6 -29 -16 -29 -22 -1 -7
-2 -415 -4 -907 -1 -492 -5 -910 -9 -928 -53 -261 -332 -478 -681 -528 -129
-19 -324 1 -450 45 -147 52 -291 169 -348 283 -60 121 -63 149 -62 661 0 257
-2 467 -4 467 -8 0 -301 -172 -306 -179 -2 -5 -5 -183 -6 -397 -1 -377 -2
-391 -24 -456 -39 -114 -102 -195 -212 -268 -140 -94 -329 -144 -543 -144 -65
0 -177 9 -215 18 -178 39 -310 103 -403 195 -37 36 -74 80 -82 96 -39 80 -32
78 -118 28 -42 -25 -89 -54 -104 -64 -15 -11 -31 -19 -35 -19 -4 0 -18 -8 -31
-18 l-23 -18 50 -76 c88 -132 232 -246 394 -315 81 -34 224 -78 287 -88 19 -3
42 -8 50 -10 58 -15 345 -24 388 -11 9 3 37 8 62 11 118 17 259 60 368 115
119 59 268 187 311 268 16 30 24 28 44 -14 27 -56 76 -115 143 -172 62 -54 71
-60 174 -112 185 -94 455 -133 729 -106 35 4 67 9 71 11 4 3 24 7 45 11 152
24 390 145 490 249 52 54 51 56 50 -101 l0 -144 160 2 160 3 0 1393 c0 767 -2
1395 -5 1397 -3 2 -61 -30 -130 -71z"/>
</g>
</svg>
