<?xml version="1.0" encoding="UTF-8" standalone="no"?>
<svg xmlns:dc="http://purl.org/dc/elements/1.1/" xmlns:cc="http://creativecommons.org/ns#" xmlns:rdf="http://www.w3.org/1999/02/22-rdf-syntax-ns#" xmlns:svg="http://www.w3.org/2000/svg" xmlns="http://www.w3.org/2000/svg" viewBox="0 0 744.09998 744.09998" height="744.09998" width="744.09998" xml:space="preserve" version="1.1" id="svg2">
  <metadata id="metadata8">
    <rdf:RDF>
      <cc:Work rdf:about="">
        <dc:format>image/svg+xml</dc:format>
        <dc:type rdf:resource="http://purl.org/dc/dcmitype/StillImage" />
      </cc:Work>
    </rdf:RDF>
  </metadata>
  <defs id="defs6">
    <clipPath id="clipPath16" clipPathUnits="userSpaceOnUse">
      <path id="path18" d="m 0,595.28 595.28,0 L 595.28,0 0,0 0,595.28 Z" />
    </clipPath>
  </defs>
  <g transform="matrix(1.25,0,0,-1.25,0,744.1)" id="g10">
    <g id="g12">
      <g clip-path="url(#clipPath16)" id="g14">
        <g transform="translate(443.5762,351.9243)" id="g20">
          <path id="path22" style="fill:#0b4269;fill-opacity:1;fill-rule:nonzero;stroke:none" d="m 0,0 0,-142.93 0,-4.111 c 0,-32.989 -34.064,-53.751 -68.121,-54.808 -30.865,-0.533 -61.727,14.897 -63.854,47.892 l 0,11.027 0,66.093 -26.612,-15.493 0,-50.6 0,-11.027 c -2.126,-31.933 -34.056,-46.297 -65.983,-46.297 -27.197,0 -54.379,10.133 -63.097,32.773 l -23.254,-13.539 c 14.489,-29.287 50.139,-43.305 85.814,-43.717 30.338,0 63.859,11.709 78.232,36.717 11.177,-25.008 42.042,-37.777 74.503,-37.777 25.016,0 52.685,6.385 72.372,28.204 l 0,-25.013 27.139,0 0,79.676 0,158.732 L 0,0 Z" />
        </g>
        <g transform="translate(153.0215,235.5029)" id="g24">
          <path id="path26" style="fill:#0b4269;fill-opacity:1;fill-rule:nonzero;stroke:none" d="m 0,0 0,159.21 c 0,32.995 34.057,53.754 68.116,54.814 30.86,0.537 61.725,-14.897 63.851,-47.891 l 0,-11.031 0,-78.271 26.613,15.493 0,62.778 0,11.031 c 2.127,31.931 34.065,46.297 65.989,46.297 31.155,0 62.295,-13.293 65.668,-43.456 l 24.578,14.31 c -10.763,36.057 -50.224,53.171 -89.714,53.628 -30.332,0 -63.863,-11.713 -78.223,-36.719 -11.181,25.006 -42.045,37.778 -74.504,37.778 -25.011,0 -52.68,-6.386 -72.374,-28.202 l 0,25.014 -27.141,0 0,-79.681 0,-170.906 L 0,0 Z" />
        </g>
        <g transform="translate(298.2983,561.4873)" id="g28">
          <path id="path30" style="fill:#0b4269;fill-opacity:1;fill-rule:nonzero;stroke:none" d="m 0,0 c -144.294,0 -261.687,-117.39 -261.687,-261.685 0,-144.294 117.393,-261.688 261.687,-261.688 144.296,0 261.686,117.394 261.686,261.688 C 261.686,-117.39 144.296,0 0,0 m 0,-544.283 c -155.823,0 -282.595,126.773 -282.595,282.598 0,155.824 126.772,282.594 282.595,282.594 155.828,0 282.596,-126.77 282.596,-282.594 C 282.596,-417.51 155.828,-544.283 0,-544.283" />
        </g>
      </g>
    </g>
  </g>
</svg>
